# xmcd CD database file
#
# Track frame offsets:
#	150
#	16745
#	25159
#	33043
#	59013
#	105963
#	126739
#	139488
#	162835
#	214778
#	235580
#	257553
#	293190
#	313607
#
# Disc length: 4476 seconds
#
# Revision: 0
# Processed by: cddbd v1.4PL0 Copyright (c) Steve Scherf et al.
# Submitted via: CDex 1.50Beta7
#
DISCID=c0117a0e
DTITLE=Muddy Waters and The Rolling Stones - Sweet Home Chicago (Recorded Live At Buddy Guy's Checkerboard Lounge, Chicago, 11/22/1981) [CD1)
DYEAR=1981
DGENRE=Blues
TTITLE0=Sweet Little Angle
TTITLE1=Flip Flop And Fly
TTITLE2=Introduction
TTITLE3=Down The Road I Go
TTITLE4=Country Boy
TTITLE5=I'm A King Bee
TTITLE6=Someday Baby
TTITLE7=County Jail
TTITLE8=Baby Please Don't Go
TTITLE9=Hoochie Coochie Man
TTITLE10=Long Distance Call
TTITLE11=Mannish Boy
TTITLE12=Champagne And Reefer
TTITLE13=Next Time You See Me
EXTD=YEAR: 1981
EXTT0=
EXTT1=
EXTT2=
EXTT3=
EXTT4=
EXTT5=
EXTT6=
EXTT7=
EXTT8=
EXTT9=
EXTT10=
EXTT11=
EXTT12=
EXTT13=
PLAYORDER=
